# xmcd
# 
# Track frame offsets:
#     150
#     15330
#     26300
#     39095
#     52552
#     66862
#     81400
#     95252
#     106770
#     119222
#     132547
#     143857
#     154180
#     171987
#     182177
#     197270
#     212902
#     229067
#     243542
#     260172
#     273960
#     285305
#     297725
#     312737
# 
# Disc length: 4352
# 
# Revision: 8
# Processed by: cddbd v1.5.2PL0 Copyright (c) Steve Scherf et al.
# Submitted via: BonkEnc v1.0.6
# 
DISCID=5f10fe18
DTITLE=Amado Batista V1 - Amado Batista - Dose Dupla V1
DYEAR=0
DGENRE=Sertaneja
TTITLE0=Sementes de amor - 3,22
TTITLE1=Disparado pelo mundo - 2,26
TTITLE2=Voce nao presta - 2,50
TTITLE3=So vou ficar por aqui - 2,59
TTITLE4=Precipitado - 3,10
TTITLE5=Nao faca jamais como eu fiz - 3,13
TTITLE6=O fruto do nosso amor (Amor perfeito) - 3,04
TTITLE7=Tempo contado - 2,33
TTITLE8=Serenata - 2,46
TTITLE9=Nao consigo te esquecer - 2,57
TTITLE10=Ausencia - 2,30
TTITLE11=Chorei a noite inteira - 2,17
TTITLE12=Carta sobre a mesa - 3,57
TTITLE13=Nunca mais eu vou deixar voce - 2,15
TTITLE14=Oh! Linda - 3,21
TTITLE15=O acidente - 3,28
TTITLE16=Os pontinhos - 3,35
TTITLE17=Velha carta - 3,13
TTITLE18=Um pouco de esperanca - 3,41
TTITLE19=Mascando chiclete - 3,03
TTITLE20=Intrusa - 2,31
TTITLE21=Cuidado menina - 2,45
TTITLE22=Vulto na estrada - 3,20
TTITLE23=Morena boa - 3,02
EXTD=
EXTT0=
EXTT1=
EXTT2=
EXTT3=
EXTT4=
EXTT5=
EXTT6=
EXTT7=
EXTT8=
EXTT9=
EXTT10=
EXTT11=
EXTT12=
EXTT13=
EXTT14=
EXTT15=
EXTT16=
EXTT17=
EXTT18=
EXTT19=
EXTT20=
EXTT21=
EXTT22=
EXTT23=
PLAYORDER=
